<svg width="32" height="33" viewBox="0 0 32 33" fill="none" xmlns="http://www.w3.org/2000/svg">
<path d="M23.8233 20.9541L23.8232 20.9541L23.4697 21.3077C23.4697 21.3077 23.4697 21.3077 23.4697 21.3077C23.3721 21.4053 23.2138 21.4053 23.1162 21.3077C23.1162 21.3077 23.1162 21.3077 23.1161 21.3077L16.3536 14.5451L16 14.1915L15.6465 14.5451L8.88388 21.3077C8.78625 21.4053 8.62803 21.4053 8.53039 21.3077L8.17679 20.9541C8.07915 20.8565 8.07915 20.6982 8.17679 20.6006L15.8233 12.9541C15.9209 12.8565 16.0791 12.8565 16.1768 12.9541L23.8233 20.6006C23.8233 20.6006 23.8233 20.6006 23.8233 20.6006C23.9209 20.6982 23.9209 20.8565 23.8233 20.9541Z" fill="black" stroke="black"/>
</svg>
