<svg width="24" height="25" viewBox="0 0 24 25" fill="none" xmlns="http://www.w3.org/2000/svg">
<path fill-rule="evenodd" clip-rule="evenodd" d="M16 3.52002H8C5.23858 3.52002 3 5.7586 3 8.52002V16.52C3 19.2814 5.23858 21.52 8 21.52H16C18.7614 21.52 21 19.2814 21 16.52V8.52002C21 5.7586 18.7614 3.52002 16 3.52002ZM19.25 16.52C19.2445 18.3126 17.7926 19.7645 16 19.77H8C6.20735 19.7645 4.75549 18.3126 4.75 16.52V8.52002C4.75549 6.72737 6.20735 5.27551 8 5.27002H16C17.7926 5.27551 19.2445 6.72737 19.25 8.52002V16.52ZM16.75 8.77002C17.3023 8.77002 17.75 8.3223 17.75 7.77002C17.75 7.21774 17.3023 6.77002 16.75 6.77002C16.1977 6.77002 15.75 7.21774 15.75 7.77002C15.75 8.3223 16.1977 8.77002 16.75 8.77002ZM12 8.02002C9.51472 8.02002 7.5 10.0347 7.5 12.52C7.5 15.0053 9.51472 17.02 12 17.02C14.4853 17.02 16.5 15.0053 16.5 12.52C16.5027 11.3257 16.0294 10.1796 15.1849 9.3351C14.3404 8.49061 13.1943 8.01736 12 8.02002ZM9.25 12.52C9.25 14.0388 10.4812 15.27 12 15.27C13.5188 15.27 14.75 14.0388 14.75 12.52C14.75 11.0012 13.5188 9.77002 12 9.77002C10.4812 9.77002 9.25 11.0012 9.25 12.52Z" fill="black"/>
</svg>
