<svg width="24" height="25" viewBox="0 0 24 25" fill="none" xmlns="http://www.w3.org/2000/svg">
<path fill-rule="evenodd" clip-rule="evenodd" d="M4.5 3.52002C3.67157 3.52002 3 4.19159 3 5.02002V20.02C3 20.8484 3.67157 21.52 4.5 21.52H19.5C20.3284 21.52 21 20.8484 21 20.02V5.02002C21 4.19159 20.3284 3.52002 19.5 3.52002H4.5ZM8.52076 7.52274C8.52639 8.47899 7.81061 9.06821 6.96123 9.06399C6.16107 9.05977 5.46357 8.42274 5.46779 7.52415C5.47201 6.67899 6.13998 5.99977 7.00764 6.01946C7.88795 6.03915 8.52639 6.68462 8.52076 7.52274ZM12.2797 10.2818H9.75971H9.7583V18.8416H12.4217V18.6419C12.4217 18.262 12.4214 17.882 12.4211 17.5019C12.4203 16.4881 12.4194 15.4732 12.4246 14.4597C12.426 14.2136 12.4372 13.9577 12.5005 13.7228C12.7381 12.8453 13.5271 12.2786 14.4074 12.4179C14.9727 12.5064 15.3467 12.8341 15.5042 13.3671C15.6013 13.7003 15.6449 14.0589 15.6491 14.4063C15.6605 15.4539 15.6589 16.5015 15.6573 17.5492C15.6567 17.919 15.6561 18.289 15.6561 18.6588V18.8402H18.328V18.6349C18.328 18.1829 18.3278 17.731 18.3275 17.2791C18.327 16.1496 18.3264 15.0201 18.3294 13.8902C18.3308 13.3797 18.276 12.8763 18.1508 12.3827C17.9638 11.6486 17.5771 11.0411 16.9485 10.6024C16.5027 10.2902 16.0133 10.0891 15.4663 10.0666C15.404 10.064 15.3412 10.0606 15.2781 10.0572C14.9984 10.0421 14.7141 10.0268 14.4467 10.0807C13.6817 10.234 13.0096 10.5841 12.5019 11.2014C12.4429 11.2722 12.3852 11.3441 12.2991 11.4514L12.2797 11.4757V10.2818ZM5.68164 18.8444H8.33242V10.2873H5.68164V18.8444Z" fill="black"/>
</svg>
