<svg width="140" height="57" viewBox="0 0 140 57" fill="none" xmlns="http://www.w3.org/2000/svg">
<path fill-rule="evenodd" clip-rule="evenodd" d="M35.5532 20.0129L35.8043 20.4613C36.1205 21.0062 36.2876 21.625 36.2886 22.255V36.1564C36.2835 36.7859 36.1167 37.4036 35.8043 37.9502L35.5353 38.3986C35.228 38.9476 34.7748 39.4008 34.2259 39.7081L22.1899 46.6677C21.6449 46.9838 21.0263 47.1509 20.3962 47.152H19.8939C19.263 47.1579 18.6425 46.9904 18.1002 46.6677L6.04632 39.726C5.50907 39.4035 5.05939 38.9538 4.7369 38.4166L4.48578 37.9681C4.16962 37.4231 4.00258 36.8045 4.00146 36.1744V22.2729C4.00258 21.6429 4.16962 21.0242 4.48578 20.4792L4.7369 20.0308C5.05126 19.4873 5.50277 19.0357 6.04632 18.7214L18.0822 11.7617C18.6273 11.4455 19.2459 11.2785 19.876 11.2773H20.3962C21.0263 11.2785 21.6449 11.4455 22.1899 11.7617L34.2259 18.7034C34.7725 19.0198 35.2294 19.4705 35.5532 20.0129ZM20.3962 14.8647H19.876L9.38269 20.9276L20.145 27.1338L30.9075 20.9276L20.3962 14.8647ZM32.4321 36.605L21.9388 42.6678V30.2551L32.7011 24.0309V36.1565L32.4321 36.605ZM83.0647 37.8248H79.3452V18.1942H83.0647V37.8248ZM49.5015 38.2456H53.6601V31.1166H55.4681L59.885 38.2456H64.3277L59.446 30.3934C61.6157 29.7477 63.2429 28.2753 63.2429 25.4857V25.3824C63.2429 21.5596 60.4792 19.7773 56.1139 19.7773H49.5015V38.2456ZM53.6601 28.2753V22.9803H56.0106C58.0253 22.9803 59.1619 23.626 59.1619 25.5115V25.6149C59.1619 27.3972 58.1028 28.2753 56.0106 28.2753H53.6601ZM71.082 38.1083C74.7757 38.1083 77.1003 36.481 77.5394 33.5622H74.0008C73.7683 34.6987 72.9159 35.4478 71.1854 35.4478C69.1448 35.4478 67.9308 34.1563 67.8275 31.9092H77.5653V30.876C77.5653 26.0457 74.4657 24.0052 70.9787 24.0052C67.0526 24.0052 64.0305 26.769 64.0305 31.0309V31.2375C64.0305 35.5512 67.0009 38.1083 71.082 38.1083ZM67.8791 29.6103C68.1632 27.6989 69.2998 26.5882 70.9787 26.5882C72.761 26.5882 73.7942 27.5697 73.9233 29.6103H67.8791ZM90.1999 38.1094C92.4215 38.1094 93.79 37.0762 94.4874 35.7072V37.8253H98.207V24.3163H94.4874V32.246C94.4874 34.235 93.2475 35.2165 91.6726 35.2165C90.0713 35.2165 89.3214 34.3382 89.3214 32.5043V24.3163H85.6024V33.0209C85.6024 36.5596 87.5653 38.1094 90.1999 38.1094ZM104.492 37.8241H100.746V24.3152H104.492V26.3816C105.163 25.1159 106.61 24.0052 108.625 24.0052C110.407 24.0052 111.75 24.7543 112.396 26.3558C113.481 24.7284 115.237 24.0052 116.942 24.0052C119.448 24.0052 121.385 25.5809 121.385 29.1712V37.8241H117.665V29.5845C117.665 27.8538 116.89 27.0789 115.547 27.0789C114.1 27.0789 112.938 28.0089 112.938 29.8428V37.8241H109.219V29.5845C109.219 27.8538 108.418 27.0789 107.1 27.0789C105.654 27.0789 104.492 28.0089 104.492 29.8428V37.8241ZM130.033 38.1083C133.727 38.1083 136.052 36.481 136.49 33.5622H132.952C132.719 34.6987 131.867 35.4478 130.136 35.4478C128.096 35.4478 126.882 34.1563 126.779 31.9092H136.517V30.876C136.517 26.0457 133.417 24.0052 129.93 24.0052C126.004 24.0052 122.981 26.769 122.981 31.0309V31.2375C122.981 35.5512 125.952 38.1083 130.033 38.1083ZM126.83 29.6103C127.115 27.6989 128.251 26.5882 129.93 26.5882C131.712 26.5882 132.745 27.5697 132.875 29.6103H126.83Z" fill="black"/>
</svg>
