<svg width="140" height="57" viewBox="0 0 140 57" fill="none" xmlns="http://www.w3.org/2000/svg">
<path fill-rule="evenodd" clip-rule="evenodd" d="M38.5702 17.5272L27.0607 40.0272H16.25L21.0667 30.7022H20.8506C16.8769 35.8607 10.9479 39.2566 2.5 40.0272V30.8313C2.5 30.8313 7.90431 30.5121 11.0814 27.1719H2.5V17.5274H12.1445V25.4599L12.361 25.459L16.3021 17.5274H23.596V25.4096L23.8124 25.4092L27.9014 17.5272H38.5702Z" fill="black"/>
<path d="M101.333 37.5437H104.439V19.7147H101.333V37.5437Z" fill="black"/>
<path fill-rule="evenodd" clip-rule="evenodd" d="M84.2092 37.3617C84.8842 37.6423 85.5707 37.7827 86.2686 37.7827C87.4214 37.7827 88.4531 37.502 89.3633 36.9407C90.2734 36.3794 90.9789 35.6058 91.4796 34.6197C91.9802 33.626 92.2304 32.4995 92.2304 31.2404C92.2304 29.9813 91.9726 28.8549 91.4568 27.8613C90.9409 26.8676 90.2242 26.0977 89.3063 25.5516C88.3886 24.9979 87.3456 24.7248 86.1774 24.7324C85.4342 24.7324 84.7212 24.8765 84.0384 25.1647C83.3558 25.453 82.7869 25.8626 82.3318 26.3935C82.2967 26.434 82.2626 26.4748 82.2294 26.516V19.7262H79.1119V37.5438H82.2067L82.2004 35.8793C82.2804 35.9774 82.3661 36.0733 82.4569 36.167C82.9499 36.6753 83.5341 37.0734 84.2092 37.3617ZM87.3949 34.4832C86.8867 34.7942 86.3064 34.9497 85.6541 34.9497C85.0093 34.9497 84.4177 34.7903 83.8792 34.4718C83.3406 34.1455 82.9121 33.7019 82.5934 33.1405C82.2824 32.5793 82.1269 31.942 82.1269 31.229C82.1194 30.516 82.2711 29.8789 82.5821 29.3176C82.9007 28.7487 83.3292 28.3088 83.8678 27.9978C84.4063 27.6792 85.0018 27.5237 85.6541 27.5313C86.3064 27.5237 86.8867 27.6754 87.3949 27.9864C87.9107 28.2898 88.3051 28.726 88.5782 29.2949C88.8588 29.8562 88.9992 30.5009 88.9992 31.229C88.9992 31.9573 88.8588 32.602 88.5782 33.1633C88.3051 33.7247 87.9107 34.1645 87.3949 34.4832Z" fill="black"/>
<path d="M43.0701 20.7957H46.6199L49.7954 32.3926L53.1736 20.7957H56.1318L59.7954 32.1599L62.8447 20.7957H66.0987L61.2973 37.5438H58.2367L54.5112 26.4418L51.0914 37.5438H47.9967L43.0701 20.7957Z" fill="black"/>
<path fill-rule="evenodd" clip-rule="evenodd" d="M71.3413 37.8395C70.1048 37.8471 68.9898 37.574 67.9962 37.0204C67.01 36.459 66.2327 35.6815 65.6637 34.6879C65.1024 33.6942 64.8218 32.5602 64.8218 31.2859C64.8218 30.0495 65.11 28.9307 65.6865 27.9295C66.2629 26.9282 67.0442 26.147 68.0303 25.5857C69.0164 25.0244 70.1162 24.7437 71.3298 24.7437C72.6952 24.7437 73.8898 25.0471 74.9138 25.6539C75.9454 26.2607 76.7153 27.1217 77.2235 28.2367C77.7393 29.3441 77.9252 30.6146 77.781 32.0482H68.0352C68.0624 32.6194 68.2049 33.139 68.4627 33.607C68.7509 34.1227 69.1529 34.5247 69.6686 34.813C70.1845 35.1012 70.7609 35.2454 71.3982 35.2454C71.8835 35.2377 72.3349 35.1544 72.752 34.9951C73.1693 34.8282 73.5219 34.6045 73.8102 34.3237C74.106 34.0431 74.3147 33.7246 74.436 33.3681H77.69C77.4928 34.2404 77.0984 35.0179 76.5068 35.7005C75.915 36.3756 75.1718 36.9027 74.2766 37.282C73.3817 37.6612 72.4032 37.8471 71.3413 37.8395ZM68.474 28.9194C68.2923 29.2363 68.1663 29.5776 68.0962 29.9434H74.5565C74.5097 29.4814 74.367 29.0604 74.1288 28.6804C73.8557 28.2329 73.484 27.8878 73.0138 27.645C72.5435 27.3947 72.0125 27.2696 71.4209 27.2696C70.7913 27.2696 70.2187 27.4137 69.7028 27.7019C69.187 27.9902 68.7774 28.396 68.474 28.9194Z" fill="black"/>
<path d="M94.5178 25.0054C94.5178 23.989 94.749 23.0864 95.2118 22.2975C95.6744 21.5011 96.323 20.8829 97.1574 20.4429C97.9993 19.9954 98.9816 19.7641 100.104 19.7489V22.5137C99.5808 22.5213 99.1333 22.6313 98.7616 22.8437C98.3975 23.0485 98.1169 23.3481 97.9196 23.7425C97.7381 24.1056 97.6401 24.5266 97.6258 25.0054H100.036V27.6337H97.6239V37.5438H94.5178V27.6337H92.5153V25.0054H94.5178Z" fill="black"/>
<path fill-rule="evenodd" clip-rule="evenodd" d="M112.335 37.8167C111.068 37.8167 109.934 37.5398 108.933 36.9862C107.939 36.4248 107.158 35.6512 106.589 34.6651C106.028 33.6714 105.747 32.5451 105.747 31.2858C105.747 30.0192 106.028 28.889 106.589 27.8953C107.158 26.894 107.939 26.1166 108.933 25.5629C109.934 25.0091 111.068 24.7323 112.335 24.7323C113.609 24.7323 114.747 25.0091 115.748 25.5629C116.757 26.1166 117.542 26.8903 118.103 27.8839C118.665 28.8776 118.949 30.0116 118.957 31.2858C118.949 32.5451 118.665 33.6714 118.103 34.6651C117.55 35.6512 116.768 36.4248 115.759 36.9862C114.751 37.5398 113.609 37.8167 112.335 37.8167ZM112.335 34.9609C113.002 34.9609 113.594 34.8092 114.11 34.5058C114.626 34.1948 115.024 33.7624 115.304 33.2087C115.585 32.6474 115.725 32.0064 115.725 31.2858C115.725 30.5577 115.585 29.9129 115.304 29.3516C115.024 28.7903 114.626 28.358 114.11 28.0546C113.594 27.7436 113.002 27.5881 112.335 27.5881C111.675 27.5881 111.087 27.7436 110.571 28.0546C110.063 28.358 109.669 28.7903 109.388 29.3516C109.107 29.9129 108.971 30.5577 108.978 31.2858C108.978 32.0064 109.119 32.6474 109.399 33.2087C109.688 33.7624 110.082 34.1948 110.583 34.5058C111.091 34.8092 111.675 34.9609 112.335 34.9609Z" fill="black"/>
<path d="M122.313 25.0054H118.854L122.598 37.5437H125.624L128.086 29.5355L130.744 37.5437H133.725L137.48 25.0054H134.351L132.221 32.8097L129.867 25.0054H126.841L124.499 32.9816L122.313 25.0054Z" fill="black"/>
</svg>
