<svg width="24" height="25" viewBox="0 0 24 25" fill="none" xmlns="http://www.w3.org/2000/svg">
<path d="M21.5931 7.48035C21.4792 7.05775 21.2566 6.67236 20.9475 6.36252C20.6383 6.05268 20.2534 5.82921 19.8311 5.71435C18.2651 5.28435 12.0001 5.27735 12.0001 5.27735C12.0001 5.27735 5.73609 5.27035 4.16909 5.68135C3.74701 5.8015 3.36291 6.02813 3.05365 6.33949C2.7444 6.65084 2.52037 7.03647 2.40309 7.45935C1.99009 9.02535 1.98609 12.2734 1.98609 12.2734C1.98609 12.2734 1.98209 15.5374 2.39209 17.0874C2.62209 17.9444 3.29709 18.6214 4.15509 18.8524C5.73709 19.2824 11.9851 19.2894 11.9851 19.2894C11.9851 19.2894 18.2501 19.2964 19.8161 18.8864C20.2386 18.7717 20.6238 18.5487 20.9337 18.2395C21.2436 17.9303 21.4675 17.5456 21.5831 17.1234C21.9971 15.5584 22.0001 12.3114 22.0001 12.3114C22.0001 12.3114 22.0201 9.04635 21.5931 7.48035ZM9.99609 15.2824L10.0011 9.28235L15.2081 12.2874L9.99609 15.2824Z" fill="black"/>
</svg>
